
<?xml version="1.0" encoding="iso-8859-1"?>
<!-- Generator: Adobe Illustrator 16.0.0, SVG Export Plug-In . SVG Version: 6.00 Build 0)  -->
<!DOCTYPE svg PUBLIC "-//W3C//DTD SVG 1.1//EN" "http://www.w3.org/Graphics/SVG/1.1/DTD/svg11.dtd">
<svg version="1.1" id="Capa_1" xmlns="http://www.w3.org/2000/svg" xmlns:xlink="http://www.w3.org/1999/xlink" x="0px" y="0px"
     width="472.128px" height="472.128px" viewBox="0 0 472.128 472.128" fill="currentColor"
     xml:space="preserve">
<g>
	<g>
		<path d="M435.128,82.495h-39.866V50.363c0-7.555-6.146-13.701-13.701-13.701h-37.517c-7.555,0-13.701,6.146-13.701,13.701v32.132
			H141.786V50.363c0-7.555-6.146-13.701-13.701-13.701H90.568c-7.555,0-13.701,6.146-13.701,13.701v32.132H37.001
			C16.599,82.495,0,99.094,0,119.496v278.969c0,20.402,16.599,37.001,37.001,37.001h398.126c20.402,0,37.001-16.599,37.001-37.001
			V119.496C472.129,99.094,455.53,82.495,435.128,82.495z M342.343,50.363c0-0.922,0.779-1.701,1.701-1.701h37.517
			c0.923,0,1.701,0.779,1.701,1.701v76.266c0,0.922-0.778,1.701-1.701,1.701h-37.517c-0.922,0-1.701-0.779-1.701-1.701V50.363z
			 M88.868,50.363c0-0.922,0.779-1.701,1.701-1.701h37.517c0.922,0,1.701,0.779,1.701,1.701v76.266c0,0.922-0.779,1.701-1.701,1.701
			H90.569c-0.922,0-1.701-0.779-1.701-1.701V50.363z M37.001,94.495h39.866v32.134c0,7.555,6.146,13.701,13.701,13.701h37.517
			c7.555,0,13.701-6.146,13.701-13.701V94.495h188.557v32.134c0,7.555,6.146,13.701,13.701,13.701h37.517
			c7.556,0,13.701-6.146,13.701-13.701V94.495h39.866c13.786,0,25.001,11.216,25.001,25.001v48.251H12v-48.251
			C12,105.711,23.216,94.495,37.001,94.495z M435.128,423.466H37.001C23.216,423.466,12,412.25,12,398.465V179.747h448.128v218.718
			C460.129,412.25,448.914,423.466,435.128,423.466z"/>
        <path d="M181.39,193.129H58.038c-10.176,0-18.455,8.279-18.455,18.455v60.682c0,10.176,8.279,18.455,18.455,18.455H181.39
			c10.176,0,18.455-8.279,18.455-18.455v-60.682C199.845,201.408,191.566,193.129,181.39,193.129z M187.845,272.266
			c0,3.561-2.896,6.455-6.455,6.455H58.038c-3.56,0-6.455-2.896-6.455-6.455v-60.682c0-3.56,2.896-6.455,6.455-6.455H181.39
			c3.56,0,6.455,2.896,6.455,6.455V272.266z"/>
        <path d="M181.39,311.711H58.038c-10.176,0-18.455,8.279-18.455,18.455v60.681c0,10.177,8.279,18.455,18.455,18.455H181.39
			c10.176,0,18.455-8.278,18.455-18.455v-60.681C199.845,319.99,191.566,311.711,181.39,311.711z M187.845,390.847
			c0,3.561-2.896,6.455-6.455,6.455H58.038c-3.56,0-6.455-2.896-6.455-6.455v-60.681c0-3.561,2.896-6.455,6.455-6.455H181.39
			c3.56,0,6.455,2.896,6.455,6.455V390.847z"/>
        <path d="M415.345,193.129H291.991c-10.177,0-18.455,8.279-18.455,18.455v60.682c0,10.176,8.278,18.455,18.455,18.455h123.354
			c10.177,0,18.455-8.279,18.455-18.455v-60.682C433.8,201.408,425.521,193.129,415.345,193.129z M421.8,272.266
			c0,3.561-2.896,6.455-6.455,6.455H291.991c-3.561,0-6.455-2.896-6.455-6.455v-60.682c0-3.56,2.896-6.455,6.455-6.455h123.354
			c3.561,0,6.455,2.896,6.455,6.455V272.266z"/>
        <path d="M415.345,311.711H291.991c-10.177,0-18.455,8.279-18.455,18.455v60.681c0,10.177,8.278,18.455,18.455,18.455h123.354
			c10.177,0,18.455-8.278,18.455-18.455v-60.681C433.8,319.99,425.521,311.711,415.345,311.711z M421.8,390.847
			c0,3.561-2.896,6.455-6.455,6.455H291.991c-3.561,0-6.455-2.896-6.455-6.455v-60.681c0-3.561,2.896-6.455,6.455-6.455h123.354
			c3.561,0,6.455,2.896,6.455,6.455V390.847z"/>
	</g>
</g>
</svg>
