<?xml version="1.0" encoding="iso-8859-1"?>
<svg version="1.1" id="Layer_1" xmlns="http://www.w3.org/2000/svg" x="0px" y="0px"
     viewBox="0 0 511.999 511.999" fill="currentColor" xml:space="preserve">
<g>
	<g>
		<g>
			<path d="M506.597,423.218L290.506,48.937C283.304,36.462,270.404,29.014,256,29.014c-14.404,0-27.304,7.448-34.506,19.922
				L5.402,423.218c-7.202,12.475-7.202,27.37,0,39.845c7.202,12.475,20.103,19.922,34.507,19.922h432.183
				c14.405,0,27.305-7.448,34.507-19.922C513.799,450.588,513.799,435.692,506.597,423.218z M484.917,450.545
				c-1.286,2.227-5.108,7.405-12.826,7.405H39.908c-7.718,0-11.541-5.178-12.826-7.405c-1.286-2.227-3.859-8.126,0-14.81
				L243.172,61.454c3.859-6.683,10.255-7.405,12.826-7.405c2.571,0,8.967,0.722,12.826,7.405l216.091,374.281
				C488.775,442.419,486.201,448.318,484.917,450.545z"/>
            <path d="M255.999,134.692c-21.051,0-38.177,17.126-38.177,38.177v123.92c0,21.051,17.126,38.177,38.177,38.177
				s38.177-17.126,38.177-38.177V172.87C294.176,151.818,277.05,134.692,255.999,134.692z M269.142,296.79
				c0,7.247-5.896,13.143-13.143,13.143c-7.247,0-13.143-5.896-13.143-13.143V172.87c0-7.247,5.896-13.143,13.143-13.143
				c7.247,0,13.143,5.896,13.143,13.143V296.79z"/>
            <path d="M255.999,360.002c-20.706,0-37.552,16.846-37.552,37.552c0,20.706,16.846,37.552,37.552,37.552
				s37.552-16.846,37.552-37.552C293.55,376.848,276.705,360.002,255.999,360.002z M255.999,410.071
				c-6.902,0-12.517-5.615-12.517-12.517c0-6.902,5.615-12.517,12.517-12.517c6.902,0,12.517,5.615,12.517,12.517
				C268.516,404.455,262.901,410.071,255.999,410.071z"/>
		</g>
	</g>
</g>
</svg>
